# xmcd CD database file
#
# Track frame offsets:
#	150
#	27669
#	54885
#	101803
#	138884
#	166028
#	204159
#	233388
#	262858
#	292832
#
# Disc length: 4509 seconds
#
# Revision: 0
# Processed by: cddbd v1.5.1PL0 Copyright (c) Steve Scherf et al.
# Submitted via: CDex 1.51
#
DISCID=74119b0a
DTITLE=Dexter Gordon - The Complete Trio and Quartet Studio Recordings Disc 7
DYEAR=1976
DGENRE=Jazz
TTITLE0=Nursery Blues - Take 2
TTITLE1=Nursery Blues - Take 3
TTITLE2=Tanya
TTITLE3=Born To Be Blue - Take 1
TTITLE4=Born To Be Blue - Take 2
TTITLE5=Good Bait
TTITLE6=Lullaby For A Monster - Take 2
TTITLE7=Lullaby For A Monster - Take 3
TTITLE8=On Green Dolphin Street
TTITLE9=A La Modal
EXTD=YEAR: 1976
EXTT0=
EXTT1=
EXTT2=
EXTT3=
EXTT4=
EXTT5=
EXTT6=
EXTT7=
EXTT8=
EXTT9=
PLAYORDER=
